<?xml version="1.0" encoding="utf-8"?>
<!-- Generator: Adobe Illustrator 20.0.0, SVG Export Plug-In . SVG Version: 6.00 Build 0)  -->
<svg version="1.1" id="Capa_1" xmlns="http://www.w3.org/2000/svg" xmlns:xlink="http://www.w3.org/1999/xlink" x="0px" y="0px"
	 viewBox="0 0 32 32" width="32" height="32"  style="enable-background:new 0 0 32 32;" xml:space="preserve">
<g>
	<path d="M20.3,0.6H6c-1,0-1.7,0.8-1.7,1.7v27.1c0,1,0.8,1.7,1.7,1.7h20.5c1,0,1.7-0.8,1.7-1.7V8.6c0-0.3-0.1-0.6-0.3-0.8l-6.9-6.9
		C20.9,0.7,20.6,0.6,20.3,0.6z M21.4,2.7l4.9,4.9c0.1,0.1,0,0.3-0.1,0.3h-4.2c-0.4,0-0.8-0.4-0.8-0.8V2.8
		C21.1,2.6,21.3,2.6,21.4,2.7z M5.3,2.2c0-0.3,0.3-0.6,0.6-0.6h13.6c0.3,0,0.6,0.3,0.6,0.6v5.7c0,0.5,0.4,0.8,0.8,0.8h6.3v20.8
		c0,0.3-0.3,0.6-0.6,0.6H5.9c-0.3,0-0.6-0.3-0.6-0.6V2.2z"/>
	<path d="M9.4,9.3H14c0.3,0,0.5-0.2,0.5-0.5S14.2,8.3,14,8.3H9.4c-0.3,0-0.5,0.2-0.5,0.5C8.8,9.1,9.1,9.3,9.4,9.3z"/>
	<path d="M18,19.5H9.4c-0.3,0-0.5,0.2-0.5,0.5s0.2,0.5,0.5,0.5H18c0.3,0,0.5-0.2,0.5-0.5S18.3,19.5,18,19.5z"/>
	<path d="M23.1,15.9h-3.6c-0.3,0-0.5,0.2-0.5,0.5s0.2,0.5,0.5,0.5h3.6c0.3,0,0.5-0.2,0.5-0.5C23.7,16.2,23.4,15.9,23.1,15.9z"/>
	<path d="M9.4,13.4H12c0.3,0,0.5-0.2,0.5-0.5s-0.2-0.5-0.5-0.5H9.4c-0.3,0-0.5,0.2-0.5,0.5C8.8,13.1,9.1,13.4,9.4,13.4z"/>
	<path d="M17,13.4h3.6c0.3,0,0.5-0.2,0.5-0.5s-0.2-0.5-0.5-0.5H17c-0.3,0-0.5,0.2-0.5,0.5C16.5,13.1,16.7,13.4,17,13.4z"/>
	<path d="M14,12.9c0,0.1,0.1,0.3,0.1,0.4c0.1,0.1,0.2,0.1,0.4,0.1c0.1,0,0.3-0.1,0.4-0.1c0.1-0.1,0.1-0.2,0.1-0.4
		c0-0.1-0.1-0.3-0.1-0.4c-0.2-0.2-0.5-0.2-0.7,0C14,12.6,14,12.7,14,12.9z"/>
	<path d="M11.9,15.9c-0.3,0-0.5,0.2-0.5,0.5s0.2,0.5,0.5,0.5H17c0.3,0,0.5-0.2,0.5-0.5s-0.2-0.5-0.5-0.5H11.9z"/>
	<path d="M9.4,17c0.1,0,0.3-0.1,0.4-0.1c0.1-0.1,0.1-0.2,0.1-0.4c0-0.1-0.1-0.3-0.1-0.4c-0.2-0.2-0.5-0.2-0.7,0
		C9,16.2,9,16.3,9,16.5c0,0.1,0.1,0.3,0.1,0.4C9.1,16.9,9.2,17,9.4,17z"/>
	<path d="M23.1,23.1h-3.6c-0.3,0-0.5,0.2-0.5,0.5s0.2,0.5,0.5,0.5h3.6c0.3,0,0.5-0.2,0.5-0.5S23.4,23.1,23.1,23.1z"/>
	<path d="M17,23.1h-5.1c-0.3,0-0.5,0.2-0.5,0.5s0.2,0.5,0.5,0.5H17c0.3,0,0.5-0.2,0.5-0.5S17.3,23.1,17,23.1z"/>
	<path d="M9,23.2c-0.1,0.1-0.1,0.2-0.1,0.4C8.9,23.7,9,23.9,9,24c0.1,0.1,0.2,0.1,0.4,0.1c0.1,0,0.3-0.1,0.4-0.1
		c0.1-0.1,0.1-0.2,0.1-0.4c0-0.1-0.1-0.3-0.1-0.4C9.5,23,9.2,23,9,23.2z"/>
	<path d="M22.8,12.5c-0.1,0.1-0.1,0.2-0.1,0.4c0,0.1,0.1,0.3,0.1,0.4c0.1,0.1,0.2,0.1,0.4,0.1s0.3-0.1,0.4-0.1
		c0.1-0.1,0.1-0.2,0.1-0.4c0-0.1-0.1-0.3-0.1-0.4C23.3,12.3,23,12.3,22.8,12.5z"/>
	<path d="M21,20.4c0.1-0.1,0.1-0.2,0.1-0.4c0-0.1-0.1-0.3-0.1-0.4c-0.2-0.2-0.5-0.2-0.7,0c-0.1,0.1-0.1,0.2-0.1,0.4
		c0,0.1,0.1,0.3,0.1,0.4c0.1,0.1,0.2,0.1,0.4,0.1S20.9,20.5,21,20.4z"/>
	<path d="M22.8,19.7c-0.1,0.1-0.1,0.2-0.1,0.4c0,0.1,0.1,0.3,0.1,0.4c0.1,0.1,0.2,0.1,0.4,0.1s0.3-0.1,0.4-0.1
		c0.1-0.1,0.1-0.2,0.1-0.4c0-0.1-0.1-0.3-0.1-0.4C23.3,19.5,23,19.5,22.8,19.7z"/>
</g>
</svg>
