<?xml version="1.0" encoding="utf-8"?>
<!-- Generator: Adobe Illustrator 20.0.0, SVG Export Plug-In . SVG Version: 6.00 Build 0)  -->
<svg version="1.1" id="Capa_1" xmlns="http://www.w3.org/2000/svg" xmlns:xlink="http://www.w3.org/1999/xlink" x="0px" y="0px"
	 viewBox="0 0 32 32" width="32" height="32"   style="enable-background:new 0 0 32 32;" xml:space="preserve">
<g>
	<path d="M28.4,30.1L27,28.8V11.4c0-0.2-0.1-0.3-0.2-0.4l-2.3-2.3V1.4c0-0.3-0.3-0.6-0.6-0.6H5c-0.3,0-0.6,0.3-0.6,0.6v25
		C4.4,26.7,4.7,27,5,27h1.9v1.9c0,0.3,0.3,0.6,0.6,0.6h18.8l1.4,1.4C27.8,31,27.9,31,28,31s0.3,0,0.4-0.1
		C28.6,30.7,28.6,30.3,28.4,30.1z M25.3,10.9h-5.2c-0.3,0-0.6-0.3-0.6-0.6V5.1L25.3,10.9z M5.4,25.4v-23c0-0.3,0.3-0.6,0.6-0.6h16.9
		c0.3,0,0.6,0.3,0.6,0.6v5.2l-4.1-4.1c-0.1-0.1-0.3-0.2-0.4-0.2H7.5c-0.3,0-0.6,0.3-0.6,0.6V26H6C5.7,26,5.4,25.7,5.4,25.4z
		 M8.5,28.5c-0.3,0-0.6-0.3-0.6-0.6V27V5c0-0.3,0.3-0.6,0.6-0.6h9.4c0.3,0,0.6,0.3,0.6,0.6v6.3c0,0.3,0.3,0.6,0.6,0.6h6.3
		c0.3,0,0.6,0.3,0.6,0.6v15.3L22.2,24c0.9-1,1.4-2.4,1.4-3.8c0-3.9-3.7-6.8-7.6-5.7c-1.6,0.5-3,1.7-3.7,3.2
		c-1.8,4.1,1.4,8.3,5.4,8.3c1.5,0,2.8-0.5,3.8-1.4l3.8,3.8H8.5z M19,24.9c-3.7,1-7-2.3-6.1-6.1c0.4-1.6,1.8-3,3.4-3.4
		c3.7-1,7,2.3,6.1,6.1C22,23.2,20.7,24.5,19,24.9z"/>
	<path d="M14.8,18.9h3c0.3,0,0.5-0.2,0.5-0.5s-0.2-0.5-0.5-0.5h-3c-0.3,0-0.5,0.2-0.5,0.5S14.5,18.9,14.8,18.9z"/>
	<path d="M20.8,20.9h-6c-0.3,0-0.5,0.2-0.5,0.5s0.2,0.5,0.5,0.5h6c0.3,0,0.5-0.2,0.5-0.5C21.3,21.2,21.1,20.9,20.8,20.9z"/>
</g>
</svg>
