<?xml version="1.0" encoding="utf-8"?>
<!-- Generator: Adobe Illustrator 20.0.0, SVG Export Plug-In . SVG Version: 6.00 Build 0)  -->
<svg version="1.1" id="Capa_1" xmlns="http://www.w3.org/2000/svg" xmlns:xlink="http://www.w3.org/1999/xlink" x="0px" y="0px"
	 viewBox="0 0 32 32" width="32" height="32" style="enable-background:new 0 0 32 32;" xml:space="preserve">
<g>
	<path d="M16,2.4C8.7,2.4,2.8,8.4,2.8,15.7S8.7,28.9,16,28.9s13.2-5.9,13.2-13.2S23.3,2.4,16,2.4z M16,27.8
		c-6.7,0-12.2-5.5-12.2-12.2S9.3,3.5,16,3.5s12.2,5.5,12.2,12.2S22.7,27.8,16,27.8z"/>
	<path d="M22.2,10.2L14.4,19l-4.7-3.8c-0.2-0.2-0.5-0.1-0.7,0.1c-0.2,0.2-0.1,0.5,0.1,0.7l5.1,4.1c0.1,0.1,0.2,0.1,0.3,0.1
		c0.1,0,0.3-0.1,0.4-0.2l8.1-9.1c0.2-0.2,0.2-0.5,0-0.7C22.7,10,22.4,10,22.2,10.2z"/>
</g>
</svg>
