<?xml version="1.0" encoding="utf-8"?>
<!-- Generator: Adobe Illustrator 20.0.0, SVG Export Plug-In . SVG Version: 6.00 Build 0)  -->
<svg version="1.1" id="Capa_1" xmlns="http://www.w3.org/2000/svg" xmlns:xlink="http://www.w3.org/1999/xlink" x="0px" y="0px"
	 viewBox="0 0 32 32" width="32" height="32" style="enable-background:new 0 0 32 32;" xml:space="preserve">
<path d="M27.8,4.2c-1.7-1.7-4.3-1.7-6,0l-17,17c0,0,0,0,0,0c0,0,0,0,0,0c0,0,0,0.1-0.1,0.1c0,0,0,0,0,0c0,0,0,0,0,0l-1.7,7
	c0,0,0,0.1,0,0.1c0,0,0,0,0,0c0,0.1,0,0.1,0,0.2c0,0,0,0,0,0c0,0.1,0.1,0.1,0.1,0.1c0,0,0.1,0.1,0.2,0.1s0.1,0,0.2,0
	c0,0,0.1,0,0.1,0l7-1.7c0,0,0,0,0,0c0,0,0,0,0,0c0,0,0.1,0,0.1-0.1c0,0,0,0,0,0c0,0,0,0,0,0l17-17C29.4,8.6,29.4,5.9,27.8,4.2z
	 M27.1,4.9c1.2,1.2,1.3,3,0.3,4.3l-4.6-4.6C24.1,3.6,25.9,3.7,27.1,4.9z M24.8,11.9l-4.7-4.7l0.7-0.7l4.7,4.7L24.8,11.9z M5.3,26.7
	c-0.2-0.2-0.5-0.2-0.7,0L4.3,27L5.5,22l2.1-0.2l-0.3,2.4c0,0,0,0,0,0.1c0,0,0,0,0,0.1c0,0,0,0,0,0c0,0,0,0.1,0,0.1c0,0,0,0.1,0,0.1
	c0,0,0,0,0,0.1c0,0,0,0,0.1,0.1c0,0,0,0,0.1,0c0,0,0.1,0,0.1,0c0,0,0,0,0.1,0c0,0,0,0,0.1,0h0h0h0h0c0,0,0,0,0.1,0l2.4-0.3L10,26.5
	L5,27.7l0.4-0.4C5.5,27.2,5.5,26.9,5.3,26.7z M11.2,24.1l10.6-10.6c0.2-0.2,0.2-0.5,0-0.7c-0.2-0.2-0.5-0.2-0.7,0L10.6,23.4
	l-2.3,0.2l0.2-2.3l10.6-10.6c0.2-0.2,0.2-0.5,0-0.7c-0.2-0.2-0.5-0.2-0.7,0L7.9,20.8l-1.5,0.2L19.4,7.9l4.7,4.7L11.1,25.6L11.2,24.1
	z M26.1,10.6l-4.7-4.7l0.7-0.7l4.7,4.7L26.1,10.6z"/>
</svg>
