<?xml version="1.0" encoding="utf-8"?>
<!-- Generator: Adobe Illustrator 20.0.0, SVG Export Plug-In . SVG Version: 6.00 Build 0)  -->
<svg version="1.1" id="Capa_1" xmlns="http://www.w3.org/2000/svg" xmlns:xlink="http://www.w3.org/1999/xlink" x="0px" y="0px"
	 viewBox="0 0 32 32"  width="32" height="32" style="enable-background:new 0 0 32 32;" xml:space="preserve">
<g>
	<path d="M28.7,7.3H15.1V4.9c0-0.8-0.6-1.4-1.4-1.4H3.3c-0.8,0-1.4,0.6-1.4,1.4v6.6v0.9v14.6c0,0.8,0.6,1.4,1.4,1.4h25.4
		c0.8,0,1.4-0.6,1.4-1.4V12.5v-0.9V8.7C30.1,7.9,29.5,7.3,28.7,7.3z M29.2,27.1c0,0.3-0.2,0.5-0.5,0.5H3.3c-0.3,0-0.5-0.2-0.5-0.5
		V12.5h26.4V27.1z M2.8,11.5V4.9c0-0.3,0.2-0.5,0.5-0.5h10.3c0.3,0,0.5,0.2,0.5,0.5v3.3h14.6c0.3,0,0.5,0.2,0.5,0.5v2.8H2.8z"/>
	<path d="M27.8,19.5h-9.9v6.6h9.9V19.5z M26.8,25.2h-8v-4.7h8V25.2z"/>
	<path d="M20.2,22.4h1.9c0.3,0,0.5-0.2,0.5-0.5s-0.2-0.5-0.5-0.5h-1.9c-0.3,0-0.5,0.2-0.5,0.5S20,22.4,20.2,22.4z"/>
	<path d="M24,22.4h0.5c0.3,0,0.5-0.2,0.5-0.5s-0.2-0.5-0.5-0.5H24c-0.3,0-0.5,0.2-0.5,0.5S23.7,22.4,24,22.4z"/>
	<path d="M20.2,24.2h5.2c0.3,0,0.5-0.2,0.5-0.5s-0.2-0.5-0.5-0.5h-5.2c-0.3,0-0.5,0.2-0.5,0.5S20,24.2,20.2,24.2z"/>
</g>
</svg>
