<?xml version="1.0" encoding="utf-8"?>
<!-- Generator: Adobe Illustrator 20.0.0, SVG Export Plug-In . SVG Version: 6.00 Build 0)  -->
<svg version="1.1" id="Layer_1" xmlns="http://www.w3.org/2000/svg" xmlns:xlink="http://www.w3.org/1999/xlink" x="0px" y="0px"
	 viewBox="0 0 32 32"  width="32" height="32"  style="enable-background:new 0 0 32 32;" xml:space="preserve">
<title>layncons-science-matraz-redondo-32</title>
<desc>Created with Sketch.</desc>
<g>
	<path d="M17.8,3h-3.6C14.1,3,14,3.1,14,3.2v10.1c-3.5,0.9-6,4-6,7.7h16c0-3.7-2.5-6.9-6-7.7V3.2C18,3.1,17.9,3,17.8,3z M13,3h-1V2
		h8v1h-1v9.5c3.7,1.3,6.2,4.9,6,9c-0.3,4.6-4.2,8.4-8.9,8.5c-5,0.1-9.1-4-9.1-9c0-3.9,2.5-7.2,6-8.5V3z M23.9,22H8.1
		c0.5,3.9,3.9,7,7.9,7S23.4,25.9,23.9,22z M17,15.5c-0.3,0-0.5-0.2-0.5-0.5s0.2-0.5,0.5-0.5c3,0,5.5,2.5,5.5,5.5
		c0,0.3-0.2,0.5-0.5,0.5s-0.5-0.2-0.5-0.5C21.5,17.5,19.5,15.5,17,15.5z"/>
</g>
</svg>
