<?xml version="1.0" encoding="utf-8"?>
<!-- Generator: Adobe Illustrator 20.0.0, SVG Export Plug-In . SVG Version: 6.00 Build 0)  -->
<svg version="1.1" id="Capa_1" xmlns="http://www.w3.org/2000/svg" xmlns:xlink="http://www.w3.org/1999/xlink" x="0px" y="0px"
	 viewBox="0 0 32 32"  width="32" height="32"  style="enable-background:new 0 0 32 32;" xml:space="preserve">
<g>
	<path d="M7,23c-1.8-0.4-3.4,1.2-3,3c0.2,0.8,0.9,1.5,1.8,1.8c1.8,0.4,3.4-1.2,3-3C8.6,23.9,7.9,23.2,7,23z M6.4,26.8
		c-0.8,0-1.5-0.7-1.5-1.5s0.7-1.5,1.5-1.5s1.5,0.7,1.5,1.5S7.2,26.8,6.4,26.8z"/>
	<path d="M29.3,19.1c0-1.2-0.7-1.8-1.3-2.1c0.7-0.6,1-1.6,0.7-2.6c-0.3-1-1.3-1.7-2.4-1.7l-6.9,0l0.4-1.7c0.5-2.2,0.2-4.7,0.1-5.4
		C19.5,3.9,18,2,16.4,2h-0.1c-0.8,0-2.1,0.4-2.1,3.4c0,3.9-1,5.7-1.8,6.5c-0.7,0.7-1.4,0.8-1.6,0.8c0,0,0,0-0.1,0h-0.5v-1H3.1
		c-0.3,0-0.6,0.3-0.6,0.6v17.3c0,0.3,0.3,0.6,0.6,0.6h7.2v-1l13.5,0c1,0,2.2-0.8,2.4-1.7c0.2-0.8,0-1.6-0.4-2.2c1.1-0.2,2-1.2,2-2.4
		c0-0.6-0.2-1.1-0.5-1.5C28.4,21.2,29.3,20.2,29.3,19.1z M3.5,28.7V13.3c0-0.3,0.3-0.6,0.6-0.6h4.6c0.3,0,0.6,0.3,0.6,0.6v15.3
		c0,0.3-0.3,0.6-0.6,0.6H4.1C3.8,29.3,3.5,29,3.5,28.7z M26.8,20.5l-1.5,0h-3.9c-0.3,0-0.5,0.2-0.5,0.5c0,0.3,0.2,0.5,0.5,0.5h3.9
		c0.8,0,1.5,0.7,1.5,1.5c0,0.8-0.7,1.5-1.5,1.5h-1h-0.5h-3.4c-0.3,0-0.5,0.2-0.5,0.5c0,0.3,0.2,0.5,0.5,0.5h3.4
		c0.8,0,1.5,0.7,1.5,1.5c0,0.8-0.7,1.5-1.5,1.5H10.3V13.7l0.5,0c0,0,1.2,0,2.3-1c1.4-1.4,2.1-3.8,2.1-7.2c0-0.9,0.1-2.4,1.1-2.4h0.1
		c1.1,0,2.2,1.5,2.4,2.8c0.1,0.7,0.4,3,0,5.1l-0.6,2.8h8.2c0.8,0,1.5,0.7,1.5,1.5c0,0.8-0.7,1.5-1.5,1.5h-1h-0.5h-3.4
		c-0.3,0-0.5,0.2-0.5,0.5s0.2,0.5,0.5,0.5h3.4c0.4,0,1.4,0,1.9,0.1c1.3,0.2,1.5,0.7,1.5,1.4C28.3,19.9,27.6,20.5,26.8,20.5z"/>
</g>
</svg>
