<?xml version="1.0" encoding="utf-8"?>
<!-- Generator: Adobe Illustrator 20.0.0, SVG Export Plug-In . SVG Version: 6.00 Build 0)  -->
<svg version="1.1" id="Capa_1" xmlns="http://www.w3.org/2000/svg" xmlns:xlink="http://www.w3.org/1999/xlink" x="0px" y="0px"
	 viewBox="0 0 32 32"  width="32" height="32" style="enable-background:new 0 0 32 32;" xml:space="preserve">
<g>
	<path d="M19.9,1.6H5.1c-0.3,0-0.6,0.3-0.6,0.6v27.8c0,0.3,0.3,0.6,0.6,0.6h21.5c0.3,0,0.6-0.3,0.6-0.6V8.9c0-0.2-0.1-0.3-0.2-0.4
		l-6.7-6.7C20.2,1.6,20.1,1.6,19.9,1.6z M20.8,3.5L25.2,8c0.1,0.1,0,0.3-0.1,0.3h-4c-0.3,0-0.6-0.3-0.6-0.6v-4
		C20.5,3.5,20.7,3.4,20.8,3.5z M5.5,29V3.1c0-0.3,0.3-0.6,0.6-0.6h12.8c0.3,0,0.6,0.3,0.6,0.6v5.6c0,0.3,0.3,0.6,0.6,0.6h5.6
		c0.3,0,0.6,0.3,0.6,0.6V29c0,0.3-0.3,0.6-0.6,0.6H6.1C5.7,29.6,5.5,29.3,5.5,29z"/>
	<path d="M9.3,9.8h4.3c0.3,0,0.5-0.2,0.5-0.5S14,8.8,13.7,8.8H9.3C9.1,8.8,8.9,9,8.9,9.3C8.9,9.6,9.1,9.8,9.3,9.8z"/>
	<path d="M9.3,13.6h2.4c0.3,0,0.5-0.2,0.5-0.5s-0.2-0.5-0.5-0.5H9.3c-0.3,0-0.5,0.2-0.5,0.5S9.1,13.6,9.3,13.6z"/>
	<path d="M16.6,13.6H20c0.3,0,0.5-0.2,0.5-0.5s-0.2-0.5-0.5-0.5h-3.4c-0.3,0-0.5,0.2-0.5,0.5S16.3,13.6,16.6,13.6z"/>
	<path d="M13.8,12.8c-0.1,0.1-0.1,0.2-0.1,0.3c0,0.1,0,0.3,0.1,0.3c0.1,0.1,0.2,0.1,0.3,0.1s0.3,0,0.3-0.1c0.1-0.1,0.1-0.2,0.1-0.3
		c0-0.1-0.1-0.3-0.1-0.3C14.3,12.6,14,12.6,13.8,12.8z"/>
	<path d="M22.4,13.6c0.1,0,0.3-0.1,0.3-0.1c0.1-0.1,0.1-0.2,0.1-0.3c0-0.1-0.1-0.3-0.1-0.3c-0.2-0.2-0.5-0.2-0.7,0
		c-0.1,0.1-0.1,0.2-0.1,0.3c0,0.1,0.1,0.3,0.1,0.3C22.1,13.6,22.3,13.6,22.4,13.6z"/>
	<path d="M15.1,16.5h-3.4c-0.3,0-0.5,0.2-0.5,0.5s0.2,0.5,0.5,0.5h3.4c0.3,0,0.5-0.2,0.5-0.5C15.6,16.8,15.4,16.5,15.1,16.5z"/>
	<path d="M9.3,17.5c0.1,0,0.3-0.1,0.3-0.1c0.1-0.1,0.1-0.2,0.1-0.3c0-0.1,0-0.3-0.1-0.3c-0.2-0.2-0.5-0.2-0.7,0
		c-0.1,0.1-0.1,0.2-0.1,0.3c0,0.1,0.1,0.3,0.1,0.3C9.1,17.4,9.2,17.5,9.3,17.5z"/>
	<path d="M10.9,21c-1.1,0.6-1.4,1.6-1.5,2.7c-0.2-0.2-0.4-0.3-0.6-0.5c-0.5-0.4-1.2,0.3-0.7,0.7c0.5,0.4,0.9,0.8,1.4,1.1
		c0.3,0.3,0.8,0.1,0.8-0.3c0-1,0.1-2.3,1.1-2.8C11.9,21.5,11.4,20.7,10.9,21z"/>
	<path d="M14.1,22.9c-0.7,0.2-1.4,1-1.9,0.1c-0.3-0.6-1.1-0.1-0.8,0.5c0.2,0.5,0.7,0.9,1.3,0.9c0.3,0,0.5,0,0.8-0.1
		c0.2-0.1,0.9-0.6,1.1-0.3c0.3,0.5,1.1,0.1,0.8-0.5C15.1,23,14.6,22.8,14.1,22.9z"/>
	<path d="M24,18.2c-0.1,0-0.2-0.1-0.2-0.2c0,0,0-0.1,0-0.3c0.2-0.5,0.1-1.1-0.3-1.4c-0.4-0.4-1-0.5-1.4-0.3c-0.1,0.1-0.2,0-0.3,0
		c0,0-0.1-0.1-0.2-0.2c-0.2-0.5-0.7-0.8-1.2-0.8s-1,0.3-1.2,0.8c0,0.1-0.1,0.2-0.2,0.2c0,0-0.1,0-0.3,0c-0.5-0.2-1.1-0.1-1.4,0.3
		c-0.4,0.4-0.5,1-0.3,1.4c0.1,0.1,0,0.2,0,0.3c0,0-0.1,0.1-0.2,0.2c-0.5,0.2-0.8,0.7-0.8,1.2s0.3,1,0.8,1.2c0.1,0,0.2,0.1,0.2,0.2
		c0,0,0,0.1,0,0.3c-0.2,0.5-0.1,1.1,0.3,1.4c0.2,0.2,0.4,0.3,0.7,0.4v5.5c0,0.2,0.2,0.3,0.3,0.1l1.9-1.9c0.1-0.1,0.2-0.1,0.3,0
		l1.9,1.9c0.1,0.1,0.3,0,0.3-0.1v-5.5c0.2,0,0.5-0.2,0.7-0.4c0.4-0.4,0.5-1,0.3-1.4c-0.1-0.1,0-0.2,0-0.3c0,0,0.1-0.1,0.2-0.2
		c0.5-0.2,0.8-0.7,0.8-1.2S24.5,18.4,24,18.2z M20.6,25.2c-0.1-0.1-0.2-0.1-0.3,0L19,26.5v-3.7c0,0,0,0,0,0c0,0,0,0,0.1,0
		c0,0,0.1,0,0.1,0.1c0,0,0.1,0.1,0.1,0.1c0.2,0.5,0.7,0.8,1.2,0.8s1-0.3,1.2-0.8c0-0.1,0.1-0.1,0.1-0.1s0.1,0,0.1-0.1c0,0,0,0,0.1,0
		c0,0,0,0,0,0v3.7L20.6,25.2z M23.6,19.7c-0.3,0.1-0.6,0.4-0.8,0.7c-0.1,0.3-0.1,0.7,0,1c0.1,0.2,0,0.3-0.1,0.4c0,0-0.1,0.1-0.3,0.1
		l-0.1,0c0,0-0.1,0-0.1,0c0,0-0.1,0-0.1,0c0,0-0.1,0-0.1,0c0,0-0.1,0-0.1,0c0,0-0.1,0-0.1,0c0,0-0.1,0-0.1,0c-0.1,0-0.2,0-0.3,0.1
		c0,0,0,0,0,0l0,0c0,0,0,0-0.1,0c-0.1,0-0.1,0.1-0.2,0.1c-0.1,0-0.1,0.1-0.2,0.2c0,0,0,0,0,0c-0.1,0.1-0.2,0.3-0.3,0.5
		c-0.1,0.2-0.2,0.2-0.3,0.2c-0.1,0-0.2,0-0.3-0.2c-0.1-0.2-0.2-0.3-0.3-0.5c0,0,0,0,0,0c-0.1-0.1-0.1-0.1-0.2-0.2
		c-0.1,0-0.1-0.1-0.2-0.1c0,0,0,0-0.1,0l0,0c0,0,0,0,0,0c0,0,0,0,0,0c-0.1,0-0.1,0-0.2-0.1c-0.1,0-0.1,0-0.2,0c0,0,0,0-0.1,0
		c0,0,0,0,0,0c-0.2,0-0.4,0-0.5,0.1l-0.1,0c-0.1,0-0.2,0-0.3-0.1c0,0-0.1-0.2-0.1-0.4c0.2-0.3,0.2-0.7,0-1c-0.1-0.3-0.4-0.6-0.8-0.7
		c-0.2-0.1-0.2-0.2-0.2-0.3s0-0.2,0.2-0.3c0.3-0.1,0.6-0.4,0.8-0.7c0.1-0.3,0.1-0.7,0-1c-0.1-0.2,0-0.3,0.1-0.4c0,0,0.2-0.1,0.4-0.1
		c0.3,0.2,0.7,0.2,1,0c0.3-0.1,0.6-0.4,0.7-0.8c0.1-0.2,0.2-0.2,0.3-0.2c0.1,0,0.2,0,0.3,0.2c0.1,0.3,0.4,0.6,0.7,0.8
		c0.3,0.1,0.7,0.1,1,0c0.2-0.1,0.3,0,0.4,0.1c0,0,0.1,0.2,0.1,0.4c-0.2,0.3-0.2,0.7,0,1c0.1,0.3,0.4,0.6,0.8,0.7
		c0.2,0.1,0.2,0.2,0.2,0.3S23.8,19.7,23.6,19.7z"/>
</g>
</svg>
