<?xml version="1.0" encoding="utf-8"?>
<!-- Generator: Adobe Illustrator 20.0.0, SVG Export Plug-In . SVG Version: 6.00 Build 0)  -->
<svg version="1.1" id="Layer_1" xmlns="http://www.w3.org/2000/svg" xmlns:xlink="http://www.w3.org/1999/xlink" x="0px" y="0px"
	 viewBox="0 0 70 70" style="enable-background:new 0 0 70 70;" xml:space="preserve">
<style type="text/css">
	.st0{fill:#294E95;}
</style>
<g>
	<path class="st0" d="M28.4,49.8V56l0,0c-0.7,0-1.4,0.1-2.1,0.1c-11.7,0-21.1-9.6-21.1-21.1S14.7,14,26.3,14c0.7,0,1.4,0,2.1,0.1
		l0,0v6.3l0,0c-0.7-0.1-1.4-0.1-2.1-0.1c-8.3,0-15,6.7-15,15s6.7,15,15,15C27,49.9,27.7,49.8,28.4,49.8L28.4,49.8L28.4,49.8
		L28.4,49.8z"/>
	<path class="st0" d="M48.1,31.6h12.3v6.4H48.1l0,0c1.4,6.7,7.4,11.7,14.6,11.7c0.7,0,1.4,0,2.1-0.1l0,0v6.3l0,0
		c-0.7,0-1.4,0.1-2.1,0.1C51,56,41.6,46.5,41.6,34.9s9.6-21.1,21.1-21.1c0.7,0,1.4,0,2.1,0.1l0,0v6.3l0,0c-0.7-0.1-1.4-0.1-2.1-0.1
		C55.5,19.9,49.6,25.1,48.1,31.6L48.1,31.6L48.1,31.6L48.1,31.6z"/>
</g>
</svg>
